<?xml version="1.0" standalone="no"?>
<!DOCTYPE svg PUBLIC "-//W3C//DTD SVG 20010904//EN"
 "http://www.w3.org/TR/2001/REC-SVG-20010904/DTD/svg10.dtd">
<svg version="1.0" xmlns="http://www.w3.org/2000/svg"
 width="260.000000pt" height="260.000000pt" viewBox="0 0 260.000000 260.000000"
 preserveAspectRatio="xMidYMid meet">
<metadata>
Created by potrace 1.11, written by Peter Selinger 2001-2013
</metadata>
<g transform="translate(0.000000,260.000000) scale(0.100000,-0.100000)"
fill="#000000" stroke="none">
<path d="M1371 2134 c-114 -28 -238 -82 -332 -146 l-77 -51 4 -106 c2 -58 13
-155 25 -215 l22 -108 -146 -143 c-115 -113 -148 -150 -152 -176 -8 -42 -7
-42 -58 -46 -30 -3 -51 -13 -75 -36 l-33 -32 4 -132 c2 -74 7 -136 10 -139 10
-10 42 -12 54 -2 25 20 -6 -62 -39 -104 -25 -31 -36 -54 -36 -81 -1 -20 0 -37
1 -37 3 0 102 32 327 105 91 29 292 94 446 144 l281 91 16 58 c15 55 29 129
42 222 4 25 8 46 9 48 2 1 93 -27 203 -63 110 -36 204 -65 209 -65 6 0 10 17
9 38 -1 29 -10 49 -37 81 -20 23 -38 54 -40 70 -4 25 -2 27 24 23 17 -3 30 1
33 9 2 8 6 71 9 141 l4 127 -33 34 c-27 28 -42 35 -74 35 -52 1 -56 4 -59 44
-2 29 -29 59 -208 235 -141 139 -212 201 -226 200 -11 -1 -59 -11 -107 -23z"/>
</g>
</svg>
